<svg width="1200" height="420" viewBox="0 0 1200 420" fill="none" xmlns="http://www.w3.org/2000/svg" role="img" aria-label="document-redactor — 오프라인 로컬 DOCX 비식별화">
  <defs>
    <linearGradient id="bgk" x1="0" y1="0" x2="1200" y2="420" gradientUnits="userSpaceOnUse">
      <stop offset="0" stop-color="#0B1220"/>
      <stop offset="1" stop-color="#111B2E"/>
    </linearGradient>
    <radialGradient id="glowk" cx="0" cy="0" r="1" gradientUnits="userSpaceOnUse" gradientTransform="translate(980 120) rotate(120) scale(320 240)">
      <stop stop-color="#3B82F6" stop-opacity="0.22"/>
      <stop offset="1" stop-color="#3B82F6" stop-opacity="0"/>
    </radialGradient>
    <linearGradient id="paperk" x1="820" y1="120" x2="1100" y2="340" gradientUnits="userSpaceOnUse">
      <stop stop-color="#F8FAFC"/>
      <stop offset="1" stop-color="#E2E8F0"/>
    </linearGradient>
  </defs>

  <rect width="1200" height="420" rx="20" fill="url(#bgk)"/>
  <rect width="1200" height="420" rx="20" fill="url(#glowk)"/>

  <g transform="translate(72 72)">
    <circle cx="6" cy="6" r="4" fill="#34D399"/>
    <text x="22" y="11" fill="#CBD5E1" font-family="system-ui, -apple-system, 'Apple SD Gothic Neo', 'Noto Sans KR', sans-serif" font-size="13" letter-spacing="2.2" font-weight="600">OFFLINE  ·  SINGLE HTML  ·  ZERO NETWORK</text>
  </g>

  <text x="72" y="172" fill="#F8FAFC" font-family="system-ui, -apple-system, 'Apple SD Gothic Neo', 'Noto Sans KR', sans-serif" font-size="64" font-weight="700" letter-spacing="-1.5">document-redactor</text>

  <text x="72" y="218" fill="#94A3B8" font-family="system-ui, -apple-system, 'Apple SD Gothic Neo', 'Noto Sans KR', sans-serif" font-size="20" font-weight="400">AI 에 올리기 전에 먼저 돌려서</text>
  <text x="72" y="246" fill="#94A3B8" font-family="system-ui, -apple-system, 'Apple SD Gothic Neo', 'Noto Sans KR', sans-serif" font-size="20" font-weight="400">계약서·법률 문서를 로컬에서 비식별화하는 도구.</text>

  <g transform="translate(72 296)">
    <rect width="132" height="52" rx="10" fill="#0F1B2D" stroke="#1E3A5F"/>
    <text x="16" y="26" fill="#60A5FA" font-family="system-ui, -apple-system, 'Apple SD Gothic Neo', 'Noto Sans KR', sans-serif" font-size="11" font-weight="600" letter-spacing="1">ARTIFACT</text>
    <text x="16" y="44" fill="#F8FAFC" font-family="system-ui, -apple-system, 'Apple SD Gothic Neo', 'Noto Sans KR', sans-serif" font-size="15" font-weight="700">HTML 한 파일</text>

    <g transform="translate(144 0)">
      <rect width="110" height="52" rx="10" fill="#0F1B2D" stroke="#1E3A5F"/>
      <text x="16" y="26" fill="#60A5FA" font-family="system-ui, -apple-system, 'Apple SD Gothic Neo', 'Noto Sans KR', sans-serif" font-size="11" font-weight="600" letter-spacing="1">SIZE</text>
      <text x="16" y="44" fill="#F8FAFC" font-family="system-ui, -apple-system, 'Apple SD Gothic Neo', 'Noto Sans KR', sans-serif" font-size="15" font-weight="700">238 KB</text>
    </g>

    <g transform="translate(266 0)">
      <rect width="140" height="52" rx="10" fill="#052E27" stroke="#0F766E"/>
      <text x="16" y="26" fill="#6EE7B7" font-family="system-ui, -apple-system, 'Apple SD Gothic Neo', 'Noto Sans KR', sans-serif" font-size="11" font-weight="600" letter-spacing="1">NETWORK</text>
      <text x="16" y="44" fill="#ECFDF5" font-family="system-ui, -apple-system, 'Apple SD Gothic Neo', 'Noto Sans KR', sans-serif" font-size="15" font-weight="700">0 요청</text>
    </g>

    <g transform="translate(418 0)">
      <rect width="150" height="52" rx="10" fill="#0F1B2D" stroke="#1E3A5F"/>
      <text x="16" y="26" fill="#60A5FA" font-family="system-ui, -apple-system, 'Apple SD Gothic Neo', 'Noto Sans KR', sans-serif" font-size="11" font-weight="600" letter-spacing="1">COVERAGE</text>
      <text x="16" y="44" fill="#F8FAFC" font-family="system-ui, -apple-system, 'Apple SD Gothic Neo', 'Noto Sans KR', sans-serif" font-size="15" font-weight="700">1,712 테스트</text>
    </g>
  </g>

  <g transform="translate(790 76)">
    <rect x="24" y="14" width="310" height="278" rx="12" fill="#1E293B" opacity="0.45"/>
    <rect width="320" height="288" rx="12" fill="url(#paperk)" stroke="#CBD5E1"/>

    <rect x="28" y="36" width="180" height="10" rx="2" fill="#94A3B8"/>
    <rect x="28" y="58" width="240" height="6" rx="2" fill="#CBD5E1"/>
    <rect x="28" y="72" width="220" height="6" rx="2" fill="#CBD5E1"/>
    <rect x="28" y="86" width="200" height="6" rx="2" fill="#CBD5E1"/>

    <rect x="28" y="110" width="120" height="14" rx="2" fill="#0F172A"/>
    <rect x="156" y="112" width="120" height="6" rx="2" fill="#CBD5E1"/>
    <rect x="156" y="120" width="70" height="6" rx="2" fill="#CBD5E1"/>

    <rect x="28" y="138" width="240" height="6" rx="2" fill="#CBD5E1"/>
    <rect x="28" y="152" width="220" height="6" rx="2" fill="#CBD5E1"/>

    <rect x="28" y="172" width="86" height="14" rx="2" fill="#0F172A"/>
    <rect x="122" y="174" width="140" height="6" rx="2" fill="#CBD5E1"/>
    <rect x="28" y="196" width="200" height="6" rx="2" fill="#CBD5E1"/>

    <rect x="28" y="216" width="180" height="14" rx="2" fill="#0F172A"/>
    <rect x="28" y="240" width="220" height="6" rx="2" fill="#CBD5E1"/>
    <rect x="28" y="254" width="160" height="6" rx="2" fill="#CBD5E1"/>

    <g transform="translate(240 242)">
      <circle cx="28" cy="28" r="28" fill="#16A34A"/>
      <path d="M16 28l8 8 16-16" stroke="#F0FDF4" stroke-width="4" stroke-linecap="round" stroke-linejoin="round" fill="none"/>
    </g>
  </g>
</svg>
